<?xml version="1.0" encoding="utf-8"?>
<!-- Generator: Adobe Illustrator 28.0.0, SVG Export Plug-In . SVG Version: 6.00 Build 0)  -->
<svg version="1.1" id="Layer_1" xmlns="http://www.w3.org/2000/svg" xmlns:xlink="http://www.w3.org/1999/xlink" x="0px" y="0px"
	 viewBox="0 0 175 70" style="enable-background:new 0 0 175 70;" xml:space="preserve">
<style type="text/css">
	.st0{display:none;}
	.st1{display:inline;fill:#DADFD0;}
	.st2{fill:#273948;}
	.st3{fill:#F88978;}
	.st4{fill:#70CBDE;}
	.st5{fill:#EBEFF5;}
</style>
<g>
	<g id="Background_00000169540588271829884820000007964585797030091929_" class="st0">
		<path class="st1" d="M54.64,6.94c0,27.53,0,27.53,0,55.06c-27.53,0-27.53,0-55.06,0c0-27.53,0-27.53,0-55.06
			C27.11,6.94,27.11,6.94,54.64,6.94z"/>
	</g>
	<g>
		<path class="st2" d="M20.84,15.49c6.29,0,6.29,0,12.58,0c1.05,2.18,1.05,2.18,2.1,4.36c2.07,0.12,8.38-0.16,9.68,0
			c0.7,0.09,1.64,0.65,2.02,1.26c0.51,0.82,1.64,6.13,2.15,7.58c0,8.23,0,8.23,0,16.45c-1.73,4.1-1.73,4.1-3.47,8.2
			C27.07,53.3,27.07,53.3,8.23,53.26c-1.67-4.01-1.67-4.01-3.33-8.01c0-8.36,0-8.36,0-16.72c0.73-1.89,1.37-7.43,3.09-8.36
			c0.84-0.45,1.77-0.3,2.69-0.32c0.3-0.14-0.69-2.41,2.31-2.04c1.8,0.22,1.07,1.92,1.34,2.04c2.15,0,2.15,0,4.3,0
			C19.74,17.66,19.74,17.66,20.84,15.49z"/>
		<g>
			<path class="st3" d="M18.58,23.07c9.28,0.03,9.28,0.03,18.55,0.05c3.46,2.13,6.94,4.26,10.41,6.37c0,7.42,0,7.42,0,14.84
				c-5.26,2.86-5.26,2.86-10.51,5.73c-9.92,0-9.92,0-19.84,0c-3.52-1.88-7.04-3.79-10.51-5.73c0-7.42,0-7.42,0-14.84
				c5.07-3.13,5.07-3.13,10.14-6.26c0.11-0.05,0.11-0.05,0.22-0.11C17.81,23.1,17.81,23.1,18.58,23.07z"/>
			<g>
				<path class="st2" d="M26.6,24.57c9.37-0.35,16.02,9.36,11.48,17.83c-4.18,7.8-15.32,8.76-20.76,1.77
					C11.1,36.18,16.73,24.95,26.6,24.57z"/>
				<g>
					<path class="st4" d="M26.27,26.46c9.6-0.65,15.06,10.4,8.52,17.29c-4.56,4.81-12.44,4.27-16.29-1.13
						C13.68,35.85,18.57,26.98,26.27,26.46z"/>
					<g>
						<path class="st5" d="M26.44,30.17c5.36-0.42,9.07,5.02,6.48,9.76c-2.2,4.01-7.99,4.51-10.92,1.02
							C18.65,36.95,21.18,30.58,26.44,30.17z"/>
						<path class="st2" d="M26.81,34.36c3.39-0.33,3.62,4.95,0.05,4.68C24.02,38.82,24.15,34.62,26.81,34.36z"/>
					</g>
				</g>
			</g>
		</g>
	</g>
</g>
<g>
	<g>
		<path d="M59.28,36.91v-10.8h8.4v2.52h-4.86v1.96h3.87v2.52h-3.87v3.79H59.28z"/>
		<path d="M79.57,31.45c0,3.67-2.48,5.75-5.67,5.75c-3.39,0-5.65-2.1-5.65-5.77c0-3.39,2.29-5.59,5.65-5.59
			C77.76,25.82,79.57,28.6,79.57,31.45z M71.79,31.45c0,1.38,0.42,3.1,2.11,3.1c1.53,0,2.13-1.32,2.13-3.1
			c0-1.47-0.6-3.03-2.16-2.98C72.27,28.46,71.79,30.08,71.79,31.45z"/>
		<path d="M80.11,26.11h9.9v2.83h-3.18v7.96h-3.54v-7.96h-3.18V26.11z"/>
		<path d="M101.88,31.45c0,3.67-2.47,5.75-5.67,5.75c-3.39,0-5.66-2.1-5.66-5.77c0-3.39,2.29-5.59,5.66-5.59
			C100.06,25.82,101.88,28.6,101.88,31.45z M94.09,31.45c0,1.38,0.42,3.1,2.12,3.1c1.53,0,2.13-1.32,2.13-3.1
			c0-1.47-0.6-3.03-2.16-2.98C94.57,28.46,94.09,30.08,94.09,31.45z"/>
		<path d="M108.63,29.24c-0.06-0.38-0.25-0.6-0.51-0.73c-0.25-0.14-0.57-0.2-0.92-0.2c-0.78,0-1.12,0.23-1.12,0.62
			c0,1.62,6.21,0.61,6.21,4.54c0,2.5-2.08,3.72-5.05,3.72c-2.85,0-4.71-1.67-4.79-3.62h3.39c0.08,0.39,0.29,0.68,0.58,0.85
			c0.29,0.18,0.66,0.27,1,0.27c0.88,0,1.47-0.28,1.47-0.79c0-1.63-6.21-0.51-6.21-4.63c0-2.29,1.98-3.45,4.68-3.45
			c3,0,4.36,1.53,4.62,3.42H108.63z"/>
		<path d="M112.74,26.11h9.9v2.83h-3.18v7.96h-3.54v-7.96h-3.18V26.11z"/>
		<path d="M123.64,26.11h3.54v6.46c0,1.06,0.21,1.98,1.67,1.98c1.27,0,1.65-0.81,1.65-1.98v-6.46h3.54v6.1
			c0,3.46-1.6,4.98-5.19,4.98c-3.34,0-5.21-1.27-5.21-5V26.11z"/>
		<path d="M146.07,36.94h-2.28l-0.14-1.06c-0.58,0.69-1.56,1.32-3.25,1.32c-2.76,0-5.23-1.79-5.23-5.55c0-3.45,2.16-5.82,5.65-5.82
			c2.6,0,4.68,1.35,5.12,4h-3.36c-0.26-0.89-0.9-1.37-1.82-1.37c-1.39,0-2.05,1.26-2.05,3.17c0,1.53,0.48,2.92,2.26,2.92
			c0.72,0,1.63-0.5,1.82-1.24h-1.56v-2.34h4.84V36.94z"/>
		<path d="M146.73,36.91l3.87-10.8h3.6l3.87,10.8h-3.53l-0.42-1.42h-3.52l-0.41,1.42H146.73z M152.37,29.36l-1.09,3.87h2.23
			L152.37,29.36z"/>
		<path d="M165.93,32l-0.14-2.46v-3.44h3.39v10.8h-3.32l-3.85-5.88l0.13,2.46v3.42h-3.39v-10.8h3.31L165.93,32z"/>
	</g>
	<g>
		<path d="M59.07,48.13v-7.02h2.54c1.65,0,2.3,0.71,2.3,1.76c0,0.98-0.56,1.41-1.12,1.51v0.02c0.96,0.15,1.44,0.82,1.44,1.75
			c0,1.46-0.96,1.98-2.29,1.98H59.07z M59.73,44.21h1.68c1.38,0,1.83-0.49,1.83-1.34c0-0.88-0.53-1.2-1.98-1.2h-1.53V44.21z
			 M59.73,47.56h1.69c1.46,0,2.15-0.2,2.15-1.41c0-1.16-0.82-1.38-2.07-1.38h-1.77V47.56z"/>
		<path d="M65.47,48.13v-7.02h0.66v7.02H65.47z"/>
		<path d="M67.62,48.13v-7.02h0.66v6.46h3.76v0.57H67.62z"/>
		<path d="M72.71,48.13v-7.02h2.4c0.78,0,1.51,0.05,2.16,0.53c0.93,0.67,1.17,2.04,1.17,2.97c0,0.93-0.2,1.96-0.85,2.66
			c-0.64,0.72-1.56,0.86-2.49,0.86H72.71z M73.37,47.56h1.59c0.59,0,1.11-0.04,1.65-0.32c0.94-0.48,1.17-1.68,1.17-2.63
			c0-1.02-0.22-2.15-1.21-2.67c-0.42-0.22-1.02-0.26-1.61-0.26h-1.59V47.56z"/>
		<path d="M79.14,49H78.6l2.29-8.08h0.55L79.14,49z"/>
		<path d="M81.73,48.13v-7.02h4.52v0.57h-3.86v2.54h3.51v0.57h-3.51v3.35H81.73z"/>
		<path d="M87.12,48.13v-7.02h0.66v7.02H87.12z"/>
		<path d="M89.26,48.13v-7.02h0.66v6.46h3.76v0.57H89.26z"/>
		<path d="M94.33,48.13v-7.02h1.01l2.3,6.19h0.02l2.26-6.19h1v7.02h-0.66v-6.26h-0.02l-2.3,6.26h-0.62l-2.31-6.26h-0.02v6.26H94.33z
			"/>
		<path d="M104.46,48.13v-7.02h4.52v0.57h-3.86v2.54h3.51v0.57h-3.51v3.35H104.46z"/>
		<path d="M112.58,40.92c2.19,0,3.31,1.65,3.31,3.71c0,2.02-1.11,3.69-3.28,3.69c-2.17,0-3.27-1.67-3.27-3.69
			C109.33,42.58,110.48,40.92,112.58,40.92z M115.22,44.63c0-1.95-1-3.14-2.62-3.14c-1.8,0-2.59,1.51-2.59,3.14
			c0,1.66,0.78,3.12,2.61,3.12C114.44,47.75,115.22,46.26,115.22,44.63z M111.58,39.47h0.63v0.99h-0.63V39.47z M113.13,39.47h0.63
			v0.99h-0.63V39.47z"/>
		<path d="M117.52,44.94v3.19h-0.66v-7.02h2.75c1.54,0,2.39,0.55,2.39,1.84c0,0.89-0.33,1.36-1.14,1.72c0.83,0.28,0.88,1.16,0.9,1.9
			c0.03,1.06,0.12,1.36,0.29,1.49v0.07h-0.73c-0.27-0.48-0.21-1.79-0.31-2.33c-0.16-0.76-0.73-0.86-1.39-0.86H117.52z M119.59,44.37
			c0.99,0,1.75-0.41,1.75-1.39c0-1.05-0.82-1.31-1.71-1.31h-2.11v2.7H119.59z"/>
		<path d="M130.93,47.19h0.02l1.53-6.08h0.68l-1.84,7.02h-0.73l-1.63-6.2h-0.02l-1.63,6.2h-0.73l-1.81-7.02h0.66l1.51,6.08h0.02
			l1.63-6.08h0.74L130.93,47.19z"/>
		<path d="M133.76,48.13v-7.02h4.67v0.57h-4.01v2.54h3.62v0.57h-3.62v2.79h4.1v0.57H133.76z"/>
		<path d="M139.38,48.13v-7.02h2.54c1.65,0,2.3,0.71,2.3,1.76c0,0.98-0.56,1.41-1.12,1.51v0.02c0.96,0.15,1.44,0.82,1.44,1.75
			c0,1.46-0.96,1.98-2.29,1.98H139.38z M140.04,44.21h1.68c1.38,0,1.83-0.49,1.83-1.34c0-0.88-0.53-1.2-1.98-1.2h-1.53V44.21z
			 M140.04,47.56h1.69c1.46,0,2.15-0.2,2.15-1.41c0-1.16-0.82-1.38-2.07-1.38h-1.76V47.56z"/>
		<path d="M145.55,48.13v-7.02h2.54c1.65,0,2.3,0.71,2.3,1.76c0,0.98-0.56,1.41-1.12,1.51v0.02c0.96,0.15,1.44,0.82,1.44,1.75
			c0,1.46-0.96,1.98-2.29,1.98H145.55z M146.22,44.21h1.68c1.38,0,1.83-0.49,1.83-1.34c0-0.88-0.53-1.2-1.98-1.2h-1.53V44.21z
			 M146.22,47.56h1.69c1.46,0,2.15-0.2,2.15-1.41c0-1.16-0.82-1.38-2.07-1.38h-1.76V47.56z"/>
		<path d="M151.73,48.13v-7.02h2.54c1.65,0,2.3,0.71,2.3,1.76c0,0.98-0.56,1.41-1.12,1.51v0.02c0.96,0.15,1.44,0.82,1.44,1.75
			c0,1.46-0.96,1.98-2.29,1.98H151.73z M152.39,44.21h1.68c1.38,0,1.83-0.49,1.83-1.34c0-0.88-0.53-1.2-1.98-1.2h-1.53V44.21z
			 M152.39,47.56h1.69c1.46,0,2.15-0.2,2.15-1.41c0-1.16-0.82-1.38-2.07-1.38h-1.76V47.56z"/>
		<path d="M157.9,48.13v-7.02h4.67v0.57h-4.01v2.54h3.62v0.57h-3.62v2.79h4.1v0.57H157.9z"/>
		<path d="M164.19,42h-0.02v6.12h-0.66v-7.02h0.75l4.06,6.13h0.02v-6.13H169v7.02h-0.77L164.19,42z"/>
	</g>
</g>
</svg>
